<svg width="18" height="12" viewBox="0 0 18 12" fill="none" xmlns="http://www.w3.org/2000/svg">
<path d="M16.945 4.12502C16.7938 3.86307 16.5773 3.64477 16.3166 3.49141C16.0559 3.33806 15.7599 3.25489 15.4575 3.25002H4.2575L3.75 1.27252C3.69872 1.08163 3.58433 0.913726 3.42544 0.79615C3.26656 0.678575 3.07254 0.618258 2.875 0.625025H1.125C0.892936 0.625025 0.670376 0.717212 0.506281 0.881306C0.342187 1.0454 0.25 1.26796 0.25 1.50002C0.25 1.73209 0.342187 1.95465 0.506281 2.11874C0.670376 2.28284 0.892936 2.37502 1.125 2.37502H2.21L4.625 11.3525C4.67627 11.5434 4.79067 11.7113 4.94956 11.8289C5.10844 11.9465 5.30246 12.0068 5.5 12H13.375C13.5366 11.9995 13.6949 11.9543 13.8323 11.8694C13.9698 11.7844 14.081 11.6631 14.1537 11.5188L17.0237 5.77878C17.1481 5.51804 17.2061 5.23056 17.1923 4.942C17.1786 4.65343 17.0936 4.37276 16.945 4.12502Z" fill="white"/>
</svg>
